<svg width="32" height="32" viewBox="0 0 32 32" fill="none" xmlns="http://www.w3.org/2000/svg">
<rect width="32" height="32" rx="4" fill="#E6E4FF"/>
<path d="M4.67676 14.2839C4.67676 14.2839 7.34702 14.7622 9.48841 17.0322C11.652 19.3256 11.6742 22.5678 11.6742 22.5678C11.6742 22.5678 11.6964 19.3256 13.8599 17.0322C16.0013 14.7622 18.6716 14.2839 18.6716 14.2839C18.6716 14.2839 16.0013 13.8056 13.8599 11.5357C11.6964 9.2422 11.6742 5.99998 11.6742 5.99998C11.6742 5.99998 11.652 9.2422 9.48841 11.5357C7.34702 13.8056 4.67676 14.2839 4.67676 14.2839Z" fill="#8161FF"/>
<path d="M17.1094 21C17.1094 21 18.7211 21.2887 20.0136 22.6588C21.3195 24.0431 21.3329 26 21.3329 26C21.3329 26 21.3463 24.0431 22.6521 22.6588C23.9446 21.2887 25.5564 21 25.5564 21C25.5564 21 23.9446 20.7113 22.6521 19.3412C21.3463 17.9569 21.3329 16 21.3329 16C21.3329 16 21.3195 17.9569 20.0136 19.3412C18.7211 20.7113 17.1094 21 17.1094 21Z" fill="#614177"/>
<path d="M22.21 14.7639C22.21 14.7639 23.0606 14.9163 23.7428 15.6394C24.432 16.37 24.4391 17.4028 24.4391 17.4028C24.4391 17.4028 24.4461 16.37 25.1354 15.6394C25.8175 14.9163 26.6681 14.7639 26.6681 14.7639C26.6681 14.7639 25.8175 14.6115 25.1354 13.8884C24.4461 13.1578 24.4391 12.125 24.4391 12.125C24.4391 12.125 24.432 13.1578 23.7428 13.8884C23.0606 14.6115 22.21 14.7639 22.21 14.7639Z" fill="#614177"/>
</svg>
