<svg width="32" height="32" viewBox="0 0 32 32" fill="none" xmlns="http://www.w3.org/2000/svg">
<rect width="32" height="32" rx="4" fill="#E6E4FF"/>
<g clip-path="url(#clip0_8507_2857)">
<path d="M20.2141 14.1103V7.87953C20.2141 6.8403 19.3716 6.00012 18.3347 6.00012H8.18312C7.14621 6.00012 6.30371 6.84262 6.30371 7.87953V24.1207C6.30371 25.1599 7.14621 26.0001 8.18312 26.0001H23.8179C24.8571 26.0001 25.6973 25.1576 25.6973 24.1207V15.9897C25.6973 14.9505 24.8548 14.1103 23.8179 14.1103H20.2141Z" fill="#8161FF"/>
<path d="M15.3331 15.0477H10.9864C10.3476 15.0477 9.8291 14.5292 9.8291 13.8904V9.67563C9.8291 9.03681 10.3476 8.51836 10.9864 8.51836H15.3331C15.9719 8.51836 16.4904 9.03681 16.4904 9.67563V13.8904C16.4904 14.5292 15.9719 15.0477 15.3331 15.0477ZM12.1436 12.7331H14.1758V10.8329H12.1436V12.7331Z" fill="#E6E4FF"/>
<path d="M15.3331 19.3157H10.9864C10.3476 19.3157 9.8291 18.7973 9.8291 18.1584V13.9437C9.8291 13.3048 10.3476 12.7864 10.9864 12.7864H15.3331C15.9719 12.7864 16.4904 13.3048 16.4904 13.9437V18.1584C16.4904 18.7973 15.9719 19.3157 15.3331 19.3157ZM12.1436 17.0012H14.1758V15.1009H12.1436V17.0012Z" fill="#E6E4FF"/>
<path d="M15.3331 23.4819H10.9864C10.3476 23.4819 9.8291 22.9634 9.8291 22.3246V18.1098C9.8291 17.471 10.3476 16.9526 10.9864 16.9526H15.3331C15.9719 16.9526 16.4904 17.471 16.4904 18.1098V22.3246C16.4904 22.9634 15.9719 23.4819 15.3331 23.4819ZM12.1436 21.1673H14.1758V19.2671H12.1436V21.1673Z" fill="#E6E4FF"/>
</g>
<defs>
<clipPath id="clip0_8507_2857">
<rect width="19.3936" height="20" fill="white" transform="translate(6.30371 6.00012)"/>
</clipPath>
</defs>
</svg>
